<?xml version="1.0" encoding="utf-8"?>
<!-- Generator: Adobe Illustrator 27.5.0, SVG Export Plug-In . SVG Version: 6.00 Build 0)  -->
<svg version="1.1" id="Layer_1" xmlns="http://www.w3.org/2000/svg" xmlns:xlink="http://www.w3.org/1999/xlink" x="0px" y="0px"
	 viewBox="0 0 360 288" style="enable-background:new 0 0 360 288;" xml:space="preserve">
<g>
	<g>
		<defs>
			<rect id="SVGID_1_" x="0" width="360" height="288"/>
		</defs>
		<use xlink:href="#SVGID_1_"  style="overflow:visible;fill:#FFFFFF;"/>
		<clipPath id="SVGID_00000159456009021517079730000014612048468043762353_">
			<use xlink:href="#SVGID_1_"  style="overflow:visible;"/>
		</clipPath>
		<g style="clip-path:url(#SVGID_00000159456009021517079730000014612048468043762353_);">
			<g>
				
					<radialGradient id="SVGID_00000080190114356864704210000005820677903289157030_" cx="183.6648" cy="111.4649" r="150.5621" gradientUnits="userSpaceOnUse">
					<stop  offset="0" style="stop-color:#262626"/>
					<stop  offset="0.3115" style="stop-color:#212121"/>
					<stop  offset="0.674" style="stop-color:#131313"/>
					<stop  offset="1" style="stop-color:#000000"/>
				</radialGradient>
				
					<rect x="-27.974" y="88.079" style="fill:url(#SVGID_00000080190114356864704210000005820677903289157030_);" width="423.278" height="46.772"/>
				<g>
					<rect x="-36.375" y="93.665" style="fill:#FFFFFF;" width="444.281" height="1.867"/>
				</g>
				<g>
					<rect x="-36.375" y="126.831" style="fill:#FFFFFF;" width="444.281" height="1.867"/>
				</g>
				<g>
					<g>
						<rect x="-36.375" y="110.531" style="fill:#FFFFFF;" width="5.602" height="1.867"/>
					</g>
					<g>
						<path style="fill:#FFFFFF;" d="M391.199,112.398h-11.105v-1.867h11.105V112.398z M368.99,112.398h-11.105v-1.867h11.105
							V112.398z M346.781,112.398h-11.105v-1.867h11.105V112.398z M324.572,112.398h-11.105v-1.867h11.105V112.398z
							 M302.363,112.398h-11.105v-1.867h11.105V112.398z M280.154,112.398h-11.104v-1.867h11.104V112.398z M257.944,112.398H246.84
							v-1.867h11.104V112.398z M235.735,112.398h-11.104v-1.867h11.104V112.398z M213.526,112.398h-11.104v-1.867h11.104V112.398z
							 M191.317,112.398h-11.104v-1.867h11.104V112.398z M169.108,112.398h-11.104v-1.867h11.104V112.398z M146.899,112.398h-11.105
							v-1.867h11.105V112.398z M124.69,112.398h-11.104v-1.867h11.104V112.398z M102.481,112.398H91.376v-1.867h11.104V112.398z
							 M80.272,112.398H69.167v-1.867h11.104V112.398z M58.063,112.398H46.958v-1.867h11.104V112.398z M35.853,112.398H24.749
							v-1.867h11.104V112.398z M13.644,112.398H2.54v-1.867h11.104V112.398z M-8.565,112.398h-11.104v-1.867h11.104V112.398z"/>
					</g>
					<g>
						<rect x="402.304" y="110.531" style="fill:#FFFFFF;" width="5.602" height="1.867"/>
					</g>
				</g>
			</g>
			<g>
				
					<radialGradient id="SVGID_00000032611264983980553540000006466405001326133395_" cx="183.6648" cy="235.6223" r="150.5621" gradientUnits="userSpaceOnUse">
					<stop  offset="0" style="stop-color:#262626"/>
					<stop  offset="0.3115" style="stop-color:#212121"/>
					<stop  offset="0.674" style="stop-color:#131313"/>
					<stop  offset="1" style="stop-color:#000000"/>
				</radialGradient>
				
					<rect x="-27.974" y="212.236" style="fill:url(#SVGID_00000032611264983980553540000006466405001326133395_);" width="423.278" height="46.772"/>
				<g>
					<rect x="-36.375" y="218.289" style="fill:#FFBD00;" width="444.281" height="0.934"/>
				</g>
				<g>
					<rect x="-36.375" y="251.455" style="fill:#FFBD00;" width="444.281" height="0.934"/>
				</g>
				<g>
					<g>
						<rect x="-36.375" y="234.689" style="fill:#FFFFFF;" width="8.403" height="1.867"/>
					</g>
					<g>
						<!-- <path style="fill:#FFFFFF;" d="M382.404,236.556h-17.099v-1.867h17.099V236.556z M348.206,236.556h-17.099v-1.867h17.099
							V236.556z M314.008,236.556h-17.099v-1.867h17.099V236.556z M279.81,236.556h-17.099v-1.867h17.099V236.556z M245.612,236.556
							h-17.099v-1.867h17.099V236.556z M211.414,236.556h-17.099v-1.867h17.099V236.556z M177.216,236.556h-17.099v-1.867h17.099
							V236.556z M143.018,236.556h-17.099v-1.867h17.099V236.556z M108.82,236.556H91.721v-1.867h17.099V236.556z M74.622,236.556
							H57.523v-1.867h17.099V236.556z M40.424,236.556H23.325v-1.867h17.099V236.556z M6.226,236.556h-17.099v-1.867H6.226V236.556z
							"/> -->
					</g>
					<g>
						<rect x="399.503" y="234.689" style="fill:#FFFFFF;" width="8.403" height="1.867"/>
					</g>
				</g>
			</g>
			<g>
				
					<!-- <radialGradient id="SVGID_00000036968528890347705930000010188528197219494074_" cx="183.6648" cy="174.394" r="150.593" gradientUnits="userSpaceOnUse">
					<stop  offset="0" style="stop-color:#262626"/>
					<stop  offset="0.3115" style="stop-color:#212121"/>
					<stop  offset="0.674" style="stop-color:#131313"/>
					<stop  offset="1" style="stop-color:#000000"/>
				</radialGradient> -->
				
					<rect x="-27.974" y="150.614" style="fill:url(#SVGID_00000036968528890347705930000010188528197219494074_);" width="423.278" height="47.56"/>
				<g>
					<rect x="-36.375" y="154.878" style="fill:#FFFFFF;" width="444.281" height="0.991"/>
				</g>
				<g>
					<rect x="-36.375" y="192.279" style="fill:#FFFFFF;" width="444.281" height="0.991"/>
				</g>
				<g>
					<rect x="-36.375" y="172.907" style="fill:#FFFFFF;" width="444.281" height="2.975"/>
				</g>
			</g>
			<g>
				
					<radialGradient id="SVGID_00000119114362668399421800000000133335303194401432_" cx="183.3032" cy="52.2403" r="150.5621" gradientUnits="userSpaceOnUse">
					<stop  offset="0" style="stop-color:#262626"/>
					<stop  offset="0.3115" style="stop-color:#212121"/>
					<stop  offset="0.674" style="stop-color:#131313"/>
					<stop  offset="1" style="stop-color:#000000"/>
				</radialGradient>
				
					<!-- <rect x="-28.336" y="28.854" style="fill:url(#SVGID_00000119114362668399421800000000133335303194401432_);" width="423.278" height="46.772"/>
				<g>
					<rect x="-28.336" y="31.726" style="fill:#FFFFFF;" width="423.278" height="0.934"/>
				</g>
				<g>
					<rect x="-28.336" y="72.01" style="fill:#FFFFFF;" width="423.278" height="0.934"/>
				</g>
				<g>
					<g>
						<rect x="-28.336" y="53.884" style="fill:#FFBD00;" width="423.278" height="2.334"/>
					</g>
					<g>
						<rect x="-28.336" y="48.262" style="fill:#FFBD00;" width="423.278" height="2.334"/>
					</g>
				</g> -->
			</g>
		</g>
	</g>
</g>
</svg>
